<svg xmlns="http://www.w3.org/2000/svg" width="124.751" height="111.002" viewBox="0 0 124.751 111.002">
  <path id="icons8-error" d="M71.375,13.037a1.5,1.5,0,0,0-1.325.719L9.2,121.772a1.521,1.521,0,0,0,1.325,2.267H132.229a1.521,1.521,0,0,0,1.325-2.267L72.7,13.756A1.5,1.5,0,0,0,71.375,13.037Zm0,4.564L129.626,121H13.124Zm0,13.223a.748.748,0,0,0-.663.36L29.318,104.648a.761.761,0,0,0,.288,1.037.75.75,0,0,0,.371.1.766.766,0,0,0,.666-.386L71.375,33.106,82.883,53.531a.761.761,0,0,0,1.325-.749l-12.171-21.6A.746.746,0,0,0,71.375,30.824ZM85.252,55.584a.744.744,0,0,0-.285.092.761.761,0,0,0-.291,1.037l.859,1.521a.76.76,0,0,0,1.325-.746L86,55.968A.756.756,0,0,0,85.252,55.584Zm-17.68,4.558a.76.76,0,0,0-.544.229.769.769,0,0,0-.217.553l.761,28.906a.76.76,0,0,0,.761.74h6.085a.76.76,0,0,0,.761-.74l.761-28.906a.769.769,0,0,0-.217-.553.76.76,0,0,0-.544-.229Zm20.25.006a.748.748,0,0,0-.285.092.76.76,0,0,0-.288,1.037l1.714,3.043a.76.76,0,0,0,1.325-.746l-1.714-3.043A.765.765,0,0,0,87.822,60.148ZM68.35,61.664H74.4l-.722,27.384h-4.6Zm22.9,4.567a.735.735,0,0,0-.282.1.757.757,0,0,0-.291,1.034l25.934,46.03H29.538a.761.761,0,1,0,0,1.521h88.375a.761.761,0,0,0,.663-1.135L92,66.614A.762.762,0,0,0,91.251,66.231Zm-19.876,28.9A4.564,4.564,0,1,0,75.939,99.7,4.57,4.57,0,0,0,71.375,95.133Zm0,1.521A3.043,3.043,0,1,1,68.332,99.7,3.046,3.046,0,0,1,71.375,96.655Z" transform="translate(-9 -13.037)" fill="#ff8d9b"/>
</svg>
