<svg fill="#000000" xmlns="http://www.w3.org/2000/svg" viewBox="0 0 50 50" width="150px" height="150px"><path d="M 0 7 L 0 39 L 50 39 L 50 7 Z M 20.625 16.59375 C 20.734375 16.59375 20.871094 16.632813 20.96875 16.6875 L 31.96875 23.0625 C 32.164063 23.175781 32.28125 23.367188 32.28125 23.59375 C 32.28125 23.820313 32.164063 24.042969 31.96875 24.15625 L 20.96875 30.53125 C 20.871094 30.589844 20.734375 30.59375 20.625 30.59375 C 20.515625 30.59375 20.410156 30.589844 20.3125 30.53125 C 20.117188 30.417969 20 30.195313 20 29.96875 L 20 17.25 C 20 17.023438 20.113281 16.800781 20.3125 16.6875 C 20.410156 16.632813 20.515625 16.59375 20.625 16.59375 Z M 11 41 C 10.449219 41 10 41.445313 10 42 C 10 42.554688 10.449219 43 11 43 L 39 43 C 39.554688 43 40 42.554688 40 42 C 40 41.445313 39.554688 41 39 41 Z"/></svg>